<svg width="16" height="17" viewBox="0 0 16 17" fill="none" xmlns="http://www.w3.org/2000/svg">
<g opacity="0.56" clip-path="url(#clip0_40000089_9106)">
<path d="M6.67676 8.37003L2.06606 12.9807C1.44429 12.0954 1.02651 11.0792 0.847603 10.0054C0.62461 8.66694 0.781693 7.2928 1.30099 6.03922C1.82028 4.78565 2.68094 3.70296 3.78508 2.9143C4.62652 2.31328 5.58362 1.9014 6.5908 1.70196C6.61313 1.69754 6.62767 1.69961 6.63826 1.7027C6.65025 1.7062 6.66587 1.71379 6.6828 1.72904C6.71811 1.76085 6.74998 1.81834 6.74998 1.89392V8.19325C6.74998 8.25956 6.72364 8.32315 6.67676 8.37003ZM14.9205 10.0645C14.9961 10.0645 15.0536 10.0963 15.0854 10.1316C15.1006 10.1485 15.1082 10.1641 15.1117 10.1761C15.1147 10.1866 15.1168 10.2011 15.1124 10.2235C14.9127 11.2305 14.5003 12.1877 13.8991 13.0294C13.1105 14.1335 12.0278 14.9942 10.7742 15.5135C9.52065 16.0328 8.1465 16.1898 6.80807 15.9668C5.78811 15.7969 4.82009 15.4115 3.96687 14.8404C3.94794 14.8277 3.93912 14.816 3.93382 14.8063C3.92782 14.7953 3.92214 14.7789 3.92095 14.7562C3.91847 14.7087 3.93659 14.6455 3.99004 14.5921L8.44441 10.1377C8.4913 10.0908 8.55489 10.0645 8.62119 10.0645H14.9205ZM9.24998 1.89409C9.24998 1.8185 9.28185 1.761 9.31717 1.72919C9.33411 1.71394 9.34973 1.70635 9.36173 1.70285C9.37232 1.69975 9.38686 1.69769 9.40921 1.70211C10.8106 1.97983 12.1065 2.66726 13.1269 3.68758C14.1472 4.7079 14.8346 6.00382 15.1123 7.40524C15.1168 7.42758 15.1147 7.44212 15.1116 7.45272C15.1081 7.46471 15.1005 7.48033 15.0853 7.49727C15.0534 7.5326 14.9959 7.56447 14.9204 7.56447H9.49998C9.36191 7.56447 9.24998 7.45254 9.24998 7.31447V1.89409Z" stroke="#2E076E" stroke-width="1.5"/>
</g>
<defs>
<clipPath id="clip0_40000089_9106">
<rect width="16" height="16" fill="white" transform="translate(0 0.814453)"/>
</clipPath>
</defs>
</svg>
