<svg width="16" height="17" viewBox="0 0 16 17" fill="none" xmlns="http://www.w3.org/2000/svg">
<g opacity="0.56">
<path fill-rule="evenodd" clip-rule="evenodd" d="M0.666656 2.81446C0.666656 2.44627 0.965133 2.1478 1.33332 2.1478H5.33332C6.21738 2.1478 7.06522 2.49899 7.69035 3.12411C8.31547 3.74923 8.66666 4.59708 8.66666 5.48113V14.8145C8.66666 15.1827 8.36818 15.4811 7.99999 15.4811C7.6318 15.4811 7.33332 15.1827 7.33332 14.8145C7.33332 14.4608 7.19285 14.1217 6.9428 13.8717C6.69275 13.6216 6.35361 13.4811 5.99999 13.4811H1.33332C0.965133 13.4811 0.666656 13.1827 0.666656 12.8145V2.81446ZM7.33332 12.5051V5.48113C7.33332 4.9507 7.12261 4.44199 6.74754 4.06692C6.37246 3.69184 5.86376 3.48113 5.33332 3.48113H1.99999V12.1478H5.99999C6.47214 12.1478 6.93139 12.273 7.33332 12.5051Z" fill="#2E076E"/>
<path fill-rule="evenodd" clip-rule="evenodd" d="M8.30962 3.12411C8.93474 2.49899 9.78259 2.1478 10.6666 2.1478H14.6666C15.0348 2.1478 15.3333 2.44627 15.3333 2.81446V12.8145C15.3333 13.1827 15.0348 13.4811 14.6666 13.4811H9.99998C9.64636 13.4811 9.30722 13.6216 9.05717 13.8717C8.80712 14.1217 8.66665 14.4608 8.66665 14.8145C8.66665 15.1827 8.36817 15.4811 7.99998 15.4811C7.63179 15.4811 7.33331 15.1827 7.33331 14.8145V5.48113C7.33331 4.59708 7.6845 3.74923 8.30962 3.12411ZM8.66665 12.5051C9.06858 12.273 9.52783 12.1478 9.99998 12.1478H14V3.48113H10.6666C10.1362 3.48113 9.62751 3.69184 9.25243 4.06692C8.87736 4.44199 8.66665 4.9507 8.66665 5.48113V12.5051Z" fill="#2E076E"/>
</g>
</svg>
