<svg width="16" height="17" viewBox="0 0 16 17" fill="none" xmlns="http://www.w3.org/2000/svg">
<g opacity="0.56" clip-path="url(#clip0_40000089_9053)">
<path fill-rule="evenodd" clip-rule="evenodd" d="M4.66669 2.81445C4.66669 2.07807 5.26364 1.48112 6.00002 1.48112H10C10.7364 1.48112 11.3334 2.07807 11.3334 2.81445V4.14778C11.3334 4.88416 10.7364 5.48112 10 5.48112H6.00002C5.26364 5.48112 4.66669 4.88416 4.66669 4.14778V2.81445ZM10 2.81445H6.00002V4.14778H10V2.81445Z" fill="#2E076E"/>
<path fill-rule="evenodd" clip-rule="evenodd" d="M4 4.14779C3.82319 4.14779 3.65362 4.21802 3.5286 4.34305C3.40357 4.46807 3.33333 4.63764 3.33333 4.81445V14.1478C3.33333 14.3246 3.40357 14.4942 3.5286 14.6192C3.65362 14.7442 3.82319 14.8145 4 14.8145H12C12.1768 14.8145 12.3464 14.7442 12.4714 14.6192C12.5964 14.4942 12.6667 14.3246 12.6667 14.1478V4.81445C12.6667 4.63764 12.5964 4.46807 12.4714 4.34305C12.3464 4.21802 12.1768 4.14779 12 4.14779H10.6667C10.2985 4.14779 10 3.84931 10 3.48112C10 3.11293 10.2985 2.81445 10.6667 2.81445H12C12.5304 2.81445 13.0391 3.02517 13.4142 3.40024C13.7893 3.77531 14 4.28402 14 4.81445V14.1478C14 14.6782 13.7893 15.1869 13.4142 15.562C13.0391 15.9371 12.5304 16.1478 12 16.1478H4C3.46957 16.1478 2.96086 15.9371 2.58579 15.562C2.21071 15.1869 2 14.6782 2 14.1478V4.81445C2 4.28402 2.21071 3.77531 2.58579 3.40024C2.96086 3.02517 3.46957 2.81445 4 2.81445H5.33333C5.70152 2.81445 6 3.11293 6 3.48112C6 3.84931 5.70152 4.14779 5.33333 4.14779H4Z" fill="#2E076E"/>
<path fill-rule="evenodd" clip-rule="evenodd" d="M5.33331 8.14778C5.33331 7.77959 5.63179 7.48112 5.99998 7.48112H9.99998C10.3682 7.48112 10.6666 7.77959 10.6666 8.14778V8.81445C10.6666 9.18264 10.3682 9.48112 9.99998 9.48112C9.63179 9.48112 9.33331 9.18264 9.33331 8.81445H6.66665C6.66665 9.18264 6.36817 9.48112 5.99998 9.48112C5.63179 9.48112 5.33331 9.18264 5.33331 8.81445V8.14778Z" fill="#2E076E"/>
<path fill-rule="evenodd" clip-rule="evenodd" d="M6.66669 12.1478C6.66669 11.7796 6.96516 11.4811 7.33335 11.4811H8.66669C9.03488 11.4811 9.33335 11.7796 9.33335 12.1478C9.33335 12.516 9.03488 12.8145 8.66669 12.8145H7.33335C6.96516 12.8145 6.66669 12.516 6.66669 12.1478Z" fill="#2E076E"/>
<path fill-rule="evenodd" clip-rule="evenodd" d="M7.99998 7.48112C8.36817 7.48112 8.66665 7.77959 8.66665 8.14778V12.1478C8.66665 12.516 8.36817 12.8145 7.99998 12.8145C7.63179 12.8145 7.33331 12.516 7.33331 12.1478V8.14778C7.33331 7.77959 7.63179 7.48112 7.99998 7.48112Z" fill="#2E076E"/>
</g>
<defs>
<clipPath id="clip0_40000089_9053">
<rect width="16" height="16" fill="white" transform="translate(0 0.814453)"/>
</clipPath>
</defs>
</svg>
