<svg width="16" height="17" viewBox="0 0 16 17" fill="none" xmlns="http://www.w3.org/2000/svg">
<g opacity="0.56" clip-path="url(#clip0_40000089_9030)">
<path d="M6.66669 2.14778V7.48111L8.66669 5.48111L10.6667 7.48111V2.14778M2.66669 13.8144V3.81445C2.66669 3.37242 2.84228 2.9485 3.15484 2.63594C3.4674 2.32338 3.89133 2.14778 4.33335 2.14778H12.6667C12.8435 2.14778 13.0131 2.21802 13.1381 2.34304C13.2631 2.46807 13.3334 2.63764 13.3334 2.81445V14.8144C13.3334 14.9913 13.2631 15.1608 13.1381 15.2859C13.0131 15.4109 12.8435 15.4811 12.6667 15.4811H4.33335C3.89133 15.4811 3.4674 15.3055 3.15484 14.993C2.84228 14.6804 2.66669 14.2565 2.66669 13.8144ZM2.66669 13.8144C2.66669 13.3724 2.84228 12.9485 3.15484 12.6359C3.4674 12.3234 3.89133 12.1478 4.33335 12.1478H13.3334" stroke="#2E076E" stroke-width="1.4" stroke-linecap="round" stroke-linejoin="round"/>
</g>
<defs>
<clipPath id="clip0_40000089_9030">
<rect width="16" height="16" fill="white" transform="translate(0 0.814453)"/>
</clipPath>
</defs>
</svg>
