<svg width="16" height="17" viewBox="0 0 16 17" fill="none" xmlns="http://www.w3.org/2000/svg">
<g opacity="0.56" clip-path="url(#clip0_40000089_9074)">
<path d="M11 11.8107C10.9991 11.6131 10.9202 11.4237 10.7803 11.2839C10.6397 11.1432 10.4489 11.0642 10.25 11.0642H1.75001C1.5511 11.0642 1.36033 11.1432 1.21968 11.2839C1.07992 11.4237 1.00101 11.6129 1.00002 11.8104C0.991368 12.5584 1.26435 13.2824 1.7648 13.8384C2.26579 14.3951 2.958 14.7427 3.70367 14.8121L3.72679 14.8142H3.75001H8.25001H8.27322L8.29634 14.8121C9.04202 14.7427 9.73423 14.3951 10.2352 13.8384C10.7356 13.2824 11.0086 12.5586 11 11.8107ZM11 11.8107C11 11.8119 11 11.8131 11 11.8142H10.5L11 11.808C11 11.8089 11 11.8098 11 11.8107ZM5.99714 8.31423L5.99429 8.31426C5.39954 8.32106 4.81618 8.1509 4.31835 7.82542C3.82051 7.49993 3.43066 7.03381 3.19833 6.48626C2.966 5.93872 2.90168 5.33447 3.01353 4.75029C3.12539 4.1661 3.40837 3.62835 3.82653 3.20536C4.24469 2.78237 4.77915 2.49322 5.36201 2.37466C5.94487 2.2561 6.54982 2.31347 7.1 2.53949C7.65018 2.76551 8.12075 3.14998 8.45194 3.64404C8.78312 4.1381 8.95997 4.71946 8.96 5.31426L8.96002 5.31711C8.96227 5.70845 8.88742 6.0964 8.73974 6.45882C8.59207 6.82123 8.37445 7.15101 8.09932 7.42932C7.82419 7.70763 7.49694 7.92902 7.13624 8.08085C6.77555 8.23269 6.38848 8.31199 5.99714 8.31423ZM6.00001 2.83423C5.50555 2.83423 5.02221 2.98085 4.61108 3.25555C4.19996 3.53026 3.87953 3.9207 3.69031 4.37752C3.50109 4.83433 3.45158 5.337 3.54804 5.82195C3.64451 6.3069 3.88261 6.75236 4.23224 7.10199C4.58187 7.45162 5.02733 7.68973 5.51228 7.78619C5.99723 7.88265 6.4999 7.83314 6.95672 7.64393C7.41353 7.45471 7.80398 7.13427 8.07868 6.72315C8.35338 6.31203 8.50001 5.82868 8.50001 5.33423C8.50001 4.67118 8.23662 4.0353 7.76777 3.56646C7.29893 3.09762 6.66305 2.83423 6.00001 2.83423ZM10.5534 14.2158C9.94706 14.8626 9.11802 15.255 8.23385 15.3142H3.76617C2.88199 15.255 2.05296 14.8626 1.44662 14.2158C0.837057 13.5656 0.49851 12.7074 0.500005 11.8162C0.502114 11.4848 0.634685 11.1676 0.869025 10.9332C1.10328 10.699 1.42035 10.5664 1.7516 10.5642H10.2484C10.5797 10.5664 10.8967 10.699 11.131 10.9332C11.3653 11.1676 11.4979 11.4849 11.5 11.8163C11.5015 12.7075 11.1629 13.5657 10.5534 14.2158Z" fill="#2E076E" stroke="#2E076E"/>
<path fill-rule="evenodd" clip-rule="evenodd" d="M10.5619 6.15911C10.4428 6.80427 10.1914 7.40305 9.83685 7.92626C10.1779 7.89106 10.5126 7.80557 10.8297 7.67206C11.2509 7.49475 11.6331 7.23621 11.9544 6.9112C12.2757 6.5862 12.5298 6.20109 12.7023 5.77787C12.8747 5.35465 12.9621 4.9016 12.9595 4.4446C12.9594 3.75067 12.7531 3.07242 12.3667 2.49601C11.9804 1.9196 11.4314 1.47106 10.7895 1.20737C10.1476 0.943678 9.44183 0.876742 8.76183 1.01506C8.56385 1.05534 8.37066 1.11248 8.1842 1.18543C8.77239 1.5038 9.28467 1.94449 9.68696 2.4734C10.1486 2.51684 10.5831 2.71976 10.9137 3.05038C11.2888 3.42546 11.4995 3.93416 11.4995 4.4646C11.4995 4.86016 11.3822 5.24684 11.1624 5.57574C11.0049 5.81143 10.7999 6.00987 10.5619 6.15911ZM12.8721 10.6946C12.6152 10.0567 12.1455 9.52733 11.5508 9.1946H13.7495C14.2128 9.19722 14.6564 9.38244 14.984 9.71006C15.3116 10.0377 15.4969 10.4813 15.4995 10.9446C15.5015 11.9635 15.1145 12.9448 14.4176 13.6882C13.84 14.3044 13.0854 14.7186 12.2649 14.8785C12.7574 14.3594 13.0661 13.6643 13.0869 12.8973C13.185 12.8173 13.2774 12.7295 13.3631 12.6343C13.78 12.171 14.0072 11.5678 13.9995 10.9446C13.9995 10.8783 13.9732 10.8147 13.9263 10.7678C13.8794 10.7209 13.8158 10.6946 13.7495 10.6946H12.8721Z" fill="#2E076E"/>
</g>
<defs>
<clipPath id="clip0_40000089_9074">
<rect width="16" height="16" fill="white" transform="translate(0 0.814453)"/>
</clipPath>
</defs>
</svg>
