<svg width="16" height="17" viewBox="0 0 16 17" fill="none" xmlns="http://www.w3.org/2000/svg">
<g opacity="0.56" clip-path="url(#clip0_40000089_9044)">
<path d="M9.33331 2.14778V4.81445C9.33331 5.16807 9.47379 5.50721 9.72384 5.75726C9.97389 6.00731 10.313 6.14778 10.6666 6.14778H13.3333" stroke="#2E076E" stroke-width="1.4" stroke-linecap="round" stroke-linejoin="round"/>
<path d="M10 12.8145C10 12.284 9.78929 11.7753 9.41421 11.4002C9.03914 11.0252 8.53043 10.8145 8 10.8145C7.46957 10.8145 6.96086 11.0252 6.58579 11.4002C6.21071 11.7753 6 12.284 6 12.8145" stroke="#2E076E" stroke-width="1.4" stroke-linecap="round" stroke-linejoin="round"/>
<path d="M10 2.14778H4.00002C3.6464 2.14778 3.30726 2.28826 3.05721 2.53831C2.80716 2.78835 2.66669 3.12749 2.66669 3.48111V14.1478C2.66669 14.5014 2.80716 14.8405 3.05721 15.0906C3.30726 15.3406 3.6464 15.4811 4.00002 15.4811H12C12.3536 15.4811 12.6928 15.3406 12.9428 15.0906C13.1929 14.8405 13.3334 14.5014 13.3334 14.1478V5.48111L10 2.14778Z" stroke="#2E076E" stroke-width="1.4" stroke-linecap="round" stroke-linejoin="round"/>
<path d="M8.00002 10.8144C8.7364 10.8144 9.33335 10.2175 9.33335 9.48111C9.33335 8.74473 8.7364 8.14778 8.00002 8.14778C7.26364 8.14778 6.66669 8.74473 6.66669 9.48111C6.66669 10.2175 7.26364 10.8144 8.00002 10.8144Z" stroke="#2E076E" stroke-width="1.4" stroke-linecap="round" stroke-linejoin="round"/>
</g>
<defs>
<clipPath id="clip0_40000089_9044">
<rect width="16" height="16" fill="white" transform="translate(0 0.814453)"/>
</clipPath>
</defs>
</svg>
