<svg width="16" height="17" viewBox="0 0 16 17" fill="none" xmlns="http://www.w3.org/2000/svg">
<g opacity="0.56">
<path d="M12.6656 4.81445H12.999C14.1036 4.81445 14.999 5.70988 14.999 6.81445V13.4145C14.999 14.1877 14.3722 14.8145 13.599 14.8145V14.8145" stroke="#2E076E" stroke-width="1.5" stroke-linecap="round"/>
<path d="M3.33236 2.81445H2.99902C1.89445 2.81445 0.999023 3.70988 0.999023 4.81445V13.4145C0.999023 14.1877 1.62582 14.8145 2.39902 14.8145V14.8145" stroke="#2E076E" stroke-width="1.5" stroke-linecap="round"/>
<path d="M8.9569 12.8317C8.50214 12.3542 8.8406 11.5645 9.5 11.5645H12.5C13.1594 11.5645 13.4979 12.3542 13.0431 12.8317C12.9015 12.9803 12.7053 13.0645 12.5 13.0645H9.5C9.29474 13.0645 9.09845 12.9803 8.9569 12.8317Z" stroke="#2E076E" stroke-width="1.5"/>
<path d="M2.9569 12.8317C2.50214 12.3542 2.8406 11.5645 3.5 11.5645H6.5C7.1594 11.5645 7.49786 12.3542 7.0431 12.8317C6.90155 12.9803 6.70526 13.0645 6.5 13.0645H3.5C3.29474 13.0645 3.09845 12.9803 2.9569 12.8317Z" stroke="#2E076E" stroke-width="1.5"/>
<circle cx="8" cy="3.81445" r="1.25" stroke="#2E076E" stroke-width="1.5"/>
<circle cx="11" cy="7.81445" r="1.25" stroke="#2E076E" stroke-width="1.5"/>
<circle cx="5" cy="7.81445" r="1.25" stroke="#2E076E" stroke-width="1.5"/>
</g>
</svg>
