<svg width="16" height="17" viewBox="0 0 16 17" fill="none" xmlns="http://www.w3.org/2000/svg">
<g opacity="0.56" clip-path="url(#clip0_40000089_9099)">
<path fill-rule="evenodd" clip-rule="evenodd" d="M3.33334 8.81445C2.96515 8.81445 2.66668 9.11293 2.66668 9.48112V14.1478C2.66668 14.516 2.96515 14.8145 3.33334 14.8145H12.6667C13.0349 14.8145 13.3333 14.516 13.3333 14.1478V9.48112C13.3333 9.11293 13.0349 8.81445 12.6667 8.81445H3.33334ZM1.33334 9.48112C1.33334 8.37655 2.22877 7.48112 3.33334 7.48112H12.6667C13.7712 7.48112 14.6667 8.37655 14.6667 9.48112V14.1478C14.6667 15.2524 13.7712 16.1478 12.6667 16.1478H3.33334C2.22877 16.1478 1.33334 15.2524 1.33334 14.1478V9.48112Z" fill="#2E076E"/>
<path fill-rule="evenodd" clip-rule="evenodd" d="M8 2.81445C7.29276 2.81445 6.61448 3.09541 6.11438 3.5955C5.61428 4.0956 5.33333 4.77388 5.33333 5.48112V8.14779C5.33333 8.51598 5.03486 8.81445 4.66667 8.81445C4.29848 8.81445 4 8.51598 4 8.14779V5.48112C4 4.42026 4.42143 3.40284 5.17157 2.65269C5.92172 1.90255 6.93913 1.48112 8 1.48112C9.06087 1.48112 10.0783 1.90255 10.8284 2.65269C11.5786 3.40284 12 4.42026 12 5.48112V8.14779C12 8.51598 11.7015 8.81445 11.3333 8.81445C10.9651 8.81445 10.6667 8.51598 10.6667 8.14779V5.48112C10.6667 4.77388 10.3857 4.0956 9.88562 3.5955C9.38552 3.09541 8.70724 2.81445 8 2.81445Z" fill="#2E076E"/>
</g>
<defs>
<clipPath id="clip0_40000089_9099">
<rect width="16" height="16" fill="white" transform="translate(0 0.814453)"/>
</clipPath>
</defs>
</svg>
