<svg width="16" height="17" viewBox="0 0 16 17" fill="none" xmlns="http://www.w3.org/2000/svg">
<g clip-path="url(#clip0_40000089_9015)">
<path fill-rule="evenodd" clip-rule="evenodd" d="M3.91914 2.0669C4.29421 1.69182 4.80292 1.48111 5.33335 1.48111H13.3334C13.8638 1.48111 14.3725 1.69182 14.7476 2.0669C15.1226 2.44197 15.3334 2.95068 15.3334 3.48111V14.1478C15.3334 14.6782 15.1226 15.1869 14.7476 15.562C14.3725 15.9371 13.8638 16.1478 13.3334 16.1478H2.66669C2.13625 16.1478 1.62755 15.9371 1.25247 15.562C0.877401 15.1869 0.666687 14.6782 0.666687 14.1478V8.14778C0.666687 7.04625 1.56516 6.14778 2.66669 6.14778H3.33335V3.48111C3.33335 2.95068 3.54407 2.44197 3.91914 2.0669ZM3.33335 7.48111H2.66669C2.30154 7.48111 2.00002 7.78263 2.00002 8.14778V14.1478C2.00002 14.3246 2.07026 14.4942 2.19528 14.6192C2.32031 14.7442 2.48988 14.8144 2.66669 14.8144C2.8435 14.8144 3.01307 14.7442 3.13809 14.6192C3.26312 14.4942 3.33335 14.3246 3.33335 14.1478V7.48111ZM4.55231 14.8144C4.62731 14.6023 4.66669 14.3771 4.66669 14.1478V3.48111C4.66669 3.3043 4.73692 3.13473 4.86195 3.0097C4.98697 2.88468 5.15654 2.81444 5.33335 2.81444H13.3334C13.5102 2.81444 13.6797 2.88468 13.8048 3.0097C13.9298 3.13473 14 3.3043 14 3.48111V14.1478C14 14.3246 13.9298 14.4942 13.8048 14.6192C13.6797 14.7442 13.5102 14.8144 13.3334 14.8144H4.55231Z" fill="#751AFF"/>
<path fill-rule="evenodd" clip-rule="evenodd" d="M6 10.1478C6 9.77959 6.29848 9.48111 6.66667 9.48111H12C12.3682 9.48111 12.6667 9.77959 12.6667 10.1478C12.6667 10.516 12.3682 10.8144 12 10.8144H6.66667C6.29848 10.8144 6 10.516 6 10.1478Z" fill="#751AFF"/>
<path fill-rule="evenodd" clip-rule="evenodd" d="M6 12.8145C6 12.4463 6.29848 12.1478 6.66667 12.1478H10C10.3682 12.1478 10.6667 12.4463 10.6667 12.8145C10.6667 13.1827 10.3682 13.4811 10 13.4811H6.66667C6.29848 13.4811 6 13.1827 6 12.8145Z" fill="#751AFF"/>
<path fill-rule="evenodd" clip-rule="evenodd" d="M6 4.81446C6 4.44627 6.29848 4.1478 6.66667 4.1478H12C12.3682 4.1478 12.6667 4.44627 12.6667 4.81446V7.48113C12.6667 7.84932 12.3682 8.1478 12 8.1478H6.66667C6.29848 8.1478 6 7.84932 6 7.48113V4.81446ZM7.33333 5.48113V6.81446H11.3333V5.48113H7.33333Z" fill="#751AFF"/>
</g>
<defs>
<clipPath id="clip0_40000089_9015">
<rect width="16" height="16" fill="white" transform="translate(0 0.814453)"/>
</clipPath>
</defs>
</svg>
