<svg width="16" height="17" viewBox="0 0 16 17" fill="none" xmlns="http://www.w3.org/2000/svg">
<g opacity="0.56" clip-path="url(#clip0_40000089_9063)">
<path fill-rule="evenodd" clip-rule="evenodd" d="M1.49622 4.05066H1C0.734784 4.05066 0.48043 4.15602 0.292893 4.34355C0.105357 4.53109 0 4.78544 0 5.05066V15.0507C0 15.3159 0.105357 15.5702 0.292893 15.7578C0.48043 15.9453 0.734784 16.0507 1 16.0507H13C13.2652 16.0507 13.5196 15.9453 13.7071 15.7578C13.8946 15.5702 14 15.3159 14 15.0507V14.5125H12.5V14.5207H2.5C2.09614 14.5207 1.74819 14.2812 1.59034 13.9366C1.52996 13.8078 1.49622 13.6641 1.49622 13.5125V4.05066Z" fill="#2E076E"/>
<path d="M10.74 3.8501L8.29998 2.13511C8.20222 2.02951 8.08281 1.94625 7.94992 1.89102C7.81704 1.8358 7.67379 1.8099 7.52998 1.81511H3.83044C3.56523 1.81511 3.31087 1.92046 3.12334 2.108C2.9358 2.29554 2.83044 2.54989 2.83044 2.81511V12.1361C2.83044 12.4014 2.9358 12.6557 3.12334 12.8432C3.31087 13.0308 3.56523 13.1361 3.83044 13.1361H15C15.2652 13.1361 15.5195 13.0308 15.7071 12.8432C15.8946 12.6557 16 12.4014 16 12.1361V4.8501C16 4.58488 15.8946 4.33053 15.7071 4.14299C15.5195 3.95545 15.2652 3.8501 15 3.8501H10.74ZM4.33044 4.28511C4.33044 3.73282 4.77816 3.28511 5.33044 3.28511H6.96141C7.181 3.28511 7.39449 3.35739 7.56891 3.49079L9.99998 5.3501H4.33044V4.28511ZM14.5 10.6061C14.5 11.1584 14.0523 11.6061 13.5 11.6061H5.33045C4.77816 11.6061 4.33044 11.1584 4.33044 10.6061V5.3501H13.5C14.0523 5.3501 14.5 5.79781 14.5 6.3501V10.6061Z" fill="#2E076E"/>
<path d="M6.46472 7.8147L12 7.8147" stroke="#2E076E" stroke-width="1.5" stroke-linecap="round"/>
</g>
<defs>
<clipPath id="clip0_40000089_9063">
<rect width="16" height="16" fill="white" transform="translate(0 0.814453)"/>
</clipPath>
</defs>
</svg>
