<svg width="16" height="16" viewBox="0 0 16 16" fill="none" xmlns="http://www.w3.org/2000/svg">
<g clip-path="url(#clip0_40000156_59231)">
<path fill-rule="evenodd" clip-rule="evenodd" d="M8.00008 1.99935C4.68637 1.99935 2.00008 4.68564 2.00008 7.99935C2.00008 11.3131 4.68637 13.9993 8.00008 13.9993C11.3138 13.9993 14.0001 11.3131 14.0001 7.99935C14.0001 4.68564 11.3138 1.99935 8.00008 1.99935ZM0.666748 7.99935C0.666748 3.94926 3.94999 0.666016 8.00008 0.666016C12.0502 0.666016 15.3334 3.94926 15.3334 7.99935C15.3334 12.0494 12.0502 15.3327 8.00008 15.3327C3.94999 15.3327 0.666748 12.0494 0.666748 7.99935Z" fill="#FB923C"/>
<path fill-rule="evenodd" clip-rule="evenodd" d="M7.99992 4.66602C8.36811 4.66602 8.66659 4.96449 8.66659 5.33268V7.99935C8.66659 8.36754 8.36811 8.66602 7.99992 8.66602C7.63173 8.66602 7.33325 8.36754 7.33325 7.99935V5.33268C7.33325 4.96449 7.63173 4.66602 7.99992 4.66602Z" fill="#FB923C"/>
<path fill-rule="evenodd" clip-rule="evenodd" d="M7.33325 10.6667C7.33325 10.2985 7.63173 10 7.99992 10H8.00659C8.37477 10 8.67325 10.2985 8.67325 10.6667C8.67325 11.0349 8.37477 11.3333 8.00659 11.3333H7.99992C7.63173 11.3333 7.33325 11.0349 7.33325 10.6667Z" fill="#FB923C"/>
</g>
<defs>
<clipPath id="clip0_40000156_59231">
<rect width="16" height="16" fill="white"/>
</clipPath>
</defs>
</svg>
