<svg width="16" height="16" viewBox="0 0 16 16" fill="none" xmlns="http://www.w3.org/2000/svg">
<g clip-path="url(#clip0_40000172_70774)">
<path fill-rule="evenodd" clip-rule="evenodd" d="M8.00008 1.99935C4.68637 1.99935 2.00008 4.68564 2.00008 7.99935C2.00008 11.3131 4.68637 13.9993 8.00008 13.9993C11.3138 13.9993 14.0001 11.3131 14.0001 7.99935C14.0001 4.68564 11.3138 1.99935 8.00008 1.99935ZM0.666748 7.99935C0.666748 3.94926 3.94999 0.666016 8.00008 0.666016C12.0502 0.666016 15.3334 3.94926 15.3334 7.99935C15.3334 12.0494 12.0502 15.3327 8.00008 15.3327C3.94999 15.3327 0.666748 12.0494 0.666748 7.99935Z" fill="#9CA3AF"/>
<path fill-rule="evenodd" clip-rule="evenodd" d="M7.99992 7.33398C8.36811 7.33398 8.66659 7.63246 8.66659 8.00065V10.6673C8.66659 11.0355 8.36811 11.334 7.99992 11.334C7.63173 11.334 7.33325 11.0355 7.33325 10.6673V8.00065C7.33325 7.63246 7.63173 7.33398 7.99992 7.33398Z" fill="#9CA3AF"/>
<path fill-rule="evenodd" clip-rule="evenodd" d="M7.33325 5.33268C7.33325 4.96449 7.63173 4.66602 7.99992 4.66602H8.00659C8.37477 4.66602 8.67325 4.96449 8.67325 5.33268C8.67325 5.70087 8.37477 5.99935 8.00659 5.99935H7.99992C7.63173 5.99935 7.33325 5.70087 7.33325 5.33268Z" fill="#9CA3AF"/>
</g>
<defs>
<clipPath id="clip0_40000172_70774">
<rect width="16" height="16" fill="white"/>
</clipPath>
</defs>
</svg>
