<svg width="16" height="16" viewBox="0 0 16 16" fill="none" xmlns="http://www.w3.org/2000/svg">
<g clip-path="url(#clip0_40000156_61264)">
<path fill-rule="evenodd" clip-rule="evenodd" d="M0.666748 7.99935C0.666748 3.94916 3.94989 0.666016 8.00008 0.666016C12.0503 0.666016 15.3334 3.94916 15.3334 7.99935C15.3334 12.0495 12.0503 15.3327 8.00008 15.3327C3.94989 15.3327 0.666748 12.0495 0.666748 7.99935ZM8.00008 1.99935C4.68627 1.99935 2.00008 4.68554 2.00008 7.99935C2.00008 11.3132 4.68627 13.9993 8.00008 13.9993C11.3139 13.9993 14.0001 11.3132 14.0001 7.99935C14.0001 4.68554 11.3139 1.99935 8.00008 1.99935Z" fill="#2DD4BF"/>
<path fill-rule="evenodd" clip-rule="evenodd" d="M10.4713 6.19526C10.7317 6.45561 10.7317 6.87772 10.4713 7.13807L7.80466 9.80474C7.54431 10.0651 7.1222 10.0651 6.86185 9.80474L5.52851 8.4714C5.26816 8.21106 5.26816 7.78895 5.52851 7.5286C5.78886 7.26825 6.21097 7.26825 6.47132 7.5286L7.33325 8.39052L9.52851 6.19526C9.78886 5.93491 10.211 5.93491 10.4713 6.19526Z" fill="#2DD4BF"/>
</g>
<defs>
<clipPath id="clip0_40000156_61264">
<rect width="16" height="16" fill="white"/>
</clipPath>
</defs>
</svg>
