<svg width="16" height="16" viewBox="0 0 16 16" fill="none" xmlns="http://www.w3.org/2000/svg">
<g clip-path="url(#clip0_40000172_56799)">
<path fill-rule="evenodd" clip-rule="evenodd" d="M8.00008 1.99935C4.68637 1.99935 2.00008 4.68564 2.00008 7.99935C2.00008 11.3131 4.68637 13.9993 8.00008 13.9993C11.3138 13.9993 14.0001 11.3131 14.0001 7.99935C14.0001 4.68564 11.3138 1.99935 8.00008 1.99935ZM0.666748 7.99935C0.666748 3.94926 3.94999 0.666016 8.00008 0.666016C12.0502 0.666016 15.3334 3.94926 15.3334 7.99935C15.3334 12.0494 12.0502 15.3327 8.00008 15.3327C3.94999 15.3327 0.666748 12.0494 0.666748 7.99935Z" fill="#F87171"/>
<path fill-rule="evenodd" clip-rule="evenodd" d="M10.4713 5.52925C10.7317 5.7896 10.7317 6.21171 10.4713 6.47206L6.47132 10.4721C6.21097 10.7324 5.78886 10.7324 5.52851 10.4721C5.26816 10.2117 5.26816 9.7896 5.52851 9.52925L9.52851 5.52925C9.78886 5.2689 10.211 5.2689 10.4713 5.52925Z" fill="#F87171"/>
<path fill-rule="evenodd" clip-rule="evenodd" d="M5.52851 5.52925C5.78886 5.2689 6.21097 5.2689 6.47132 5.52925L10.4713 9.52925C10.7317 9.7896 10.7317 10.2117 10.4713 10.4721C10.211 10.7324 9.78886 10.7324 9.52851 10.4721L5.52851 6.47206C5.26816 6.21171 5.26816 5.7896 5.52851 5.52925Z" fill="#F87171"/>
</g>
<defs>
<clipPath id="clip0_40000172_56799">
<rect width="16" height="16" fill="white"/>
</clipPath>
</defs>
</svg>
